# xmcd
# 
# Track frame offsets:
#     150
#     32465
#     48955
#     88552
#     129190
# 
# Disc length: 2277
# 
# Revision: 1
# Processed by: cddbd v1.5.2PL0 Copyright (c) Steve Scherf et al.
# Submitted via: BonkEnc v1.0.15
# 
DISCID=2e08e305
DTITLE=Art Blakey - A Night At Birdland With The Art Blakey Quintet Vol.2
DYEAR=1954
DGENRE=Jazz
TTITLE0=Wee-Dot
TTITLE1=If I Had You
TTITLE2=Quicksilver (Alternate Master)
TTITLE3=Now's The Time
TTITLE4=Confirmation
EXTD=YEAR: 1954
EXTT0=
EXTT1=
EXTT2=
EXTT3=
EXTT4=
PLAYORDER=
